<svg id="visual" viewBox="0 0 900 600" width="900" height="600" xmlns="http://www.w3.org/2000/svg" xmlns:xlink="http://www.w3.org/1999/xlink" version="1.1"><path d="M0 73L13.7 68C27.3 63 54.7 53 82 57C109.3 61 136.7 79 163.8 82C191 85 218 73 245.2 74C272.3 75 299.7 89 327 89C354.3 89 381.7 75 409 69C436.3 63 463.7 65 491 70C518.3 75 545.7 83 573 80C600.3 77 627.7 63 654.8 59C682 55 709 61 736.2 65C763.3 69 790.7 71 818 67C845.3 63 872.7 53 886.3 48L900 43L900 0L886.3 0C872.7 0 845.3 0 818 0C790.7 0 763.3 0 736.2 0C709 0 682 0 654.8 0C627.7 0 600.3 0 573 0C545.7 0 518.3 0 491 0C463.7 0 436.3 0 409 0C381.7 0 354.3 0 327 0C299.7 0 272.3 0 245.2 0C218 0 191 0 163.8 0C136.7 0 109.3 0 82 0C54.7 0 27.3 0 13.7 0L0 0Z" fill="#6198ff"></path><path d="M0 235L13.7 229C27.3 223 54.7 211 82 200C109.3 189 136.7 179 163.8 181C191 183 218 197 245.2 207C272.3 217 299.7 223 327 223C354.3 223 381.7 217 409 219C436.3 221 463.7 231 491 225C518.3 219 545.7 197 573 186C600.3 175 627.7 175 654.8 167C682 159 709 143 736.2 134C763.3 125 790.7 123 818 128C845.3 133 872.7 145 886.3 151L900 157L900 41L886.3 46C872.7 51 845.3 61 818 65C790.7 69 763.3 67 736.2 63C709 59 682 53 654.8 57C627.7 61 600.3 75 573 78C545.7 81 518.3 73 491 68C463.7 63 436.3 61 409 67C381.7 73 354.3 87 327 87C299.7 87 272.3 73 245.2 72C218 71 191 83 163.8 80C136.7 77 109.3 59 82 55C54.7 51 27.3 61 13.7 66L0 71Z" fill="#3c80ff"></path><path d="M0 289L13.7 290C27.3 291 54.7 293 82 288C109.3 283 136.7 271 163.8 267C191 263 218 267 245.2 277C272.3 287 299.7 303 327 302C354.3 301 381.7 283 409 277C436.3 271 463.7 277 491 281C518.3 285 545.7 287 573 287C600.3 287 627.7 285 654.8 270C682 255 709 227 736.2 221C763.3 215 790.7 231 818 238C845.3 245 872.7 243 886.3 242L900 241L900 155L886.3 149C872.7 143 845.3 131 818 126C790.7 121 763.3 123 736.2 132C709 141 682 157 654.8 165C627.7 173 600.3 173 573 184C545.7 195 518.3 217 491 223C463.7 229 436.3 219 409 217C381.7 215 354.3 221 327 221C299.7 221 272.3 215 245.2 205C218 195 191 181 163.8 179C136.7 177 109.3 187 82 198C54.7 209 27.3 221 13.7 227L0 233Z" fill="#0066ff"></path><path d="M0 385L13.7 382C27.3 379 54.7 373 82 377C109.3 381 136.7 395 163.8 402C191 409 218 409 245.2 413C272.3 417 299.7 425 327 433C354.3 441 381.7 449 409 453C436.3 457 463.7 457 491 460C518.3 463 545.7 469 573 468C600.3 467 627.7 459 654.8 459C682 459 709 467 736.2 458C763.3 449 790.7 423 818 425C845.3 427 872.7 457 886.3 472L900 487L900 239L886.3 240C872.7 241 845.3 243 818 236C790.7 229 763.3 213 736.2 219C709 225 682 253 654.8 268C627.7 283 600.3 285 573 285C545.7 285 518.3 283 491 279C463.7 275 436.3 269 409 275C381.7 281 354.3 299 327 300C299.7 301 272.3 285 245.2 275C218 265 191 261 163.8 265C136.7 269 109.3 281 82 286C54.7 291 27.3 289 13.7 288L0 287Z" fill="#0059dd"></path><path d="M0 601L13.7 601C27.3 601 54.7 601 82 601C109.3 601 136.7 601 163.8 601C191 601 218 601 245.2 601C272.3 601 299.7 601 327 601C354.3 601 381.7 601 409 601C436.3 601 463.7 601 491 601C518.3 601 545.7 601 573 601C600.3 601 627.7 601 654.8 601C682 601 709 601 736.2 601C763.3 601 790.7 601 818 601C845.3 601 872.7 601 886.3 601L900 601L900 485L886.3 470C872.7 455 845.3 425 818 423C790.7 421 763.3 447 736.2 456C709 465 682 457 654.8 457C627.7 457 600.3 465 573 466C545.7 467 518.3 461 491 458C463.7 455 436.3 455 409 451C381.7 447 354.3 439 327 431C299.7 423 272.3 415 245.2 411C218 407 191 407 163.8 400C136.7 393 109.3 379 82 375C54.7 371 27.3 377 13.7 380L0 383Z" fill="#004cbb"></path></svg>