<svg id="visual" viewBox="0 0 900 600" width="900" height="600" xmlns="http://www.w3.org/2000/svg" xmlns:xlink="http://www.w3.org/1999/xlink" version="1.1"><rect x="0" y="0" width="900" height="600" fill="#002233"></rect><path d="M0 521L21.5 514C43 507 86 493 128.8 479C171.7 465 214.3 451 257.2 441.2C300 431.3 343 425.7 385.8 431.8C428.7 438 471.3 456 514.2 465.8C557 475.7 600 477.3 642.8 482C685.7 486.7 728.3 494.3 771.2 477C814 459.7 857 417.3 878.5 396.2L900 375L900 601L878.5 601C857 601 814 601 771.2 601C728.3 601 685.7 601 642.8 601C600 601 557 601 514.2 601C471.3 601 428.7 601 385.8 601C343 601 300 601 257.2 601C214.3 601 171.7 601 128.8 601C86 601 43 601 21.5 601L0 601Z" fill="#0066FF" stroke-linecap="round" stroke-linejoin="miter"></path></svg>